<svg xmlns='http://www.w3.org/2000/svg' width="16" height="16" viewBox="0 0 24 24" class="ZDI ZDI--UserFill24" fill="currentColor"><path fill-rule="evenodd" d="M12 2.5A5.5 5.5 0 0 0 6.5 8a5.5 5.5 0 0 0 5.5 5.5A5.5 5.5 0 0 0 17.5 8 5.5 5.5 0 0 0 12 2.5ZM7.224 14.632c.68-.294 1.454-.35 2.501-.206a16.62 16.62 0 0 0 4.55 0c1.047-.144 1.821-.088 2.501.206.656.284 1.155.766 1.676 1.27 1.536 1.489 2.436 3.37 2.649 4.911.107.777-.536 1.337-1.201 1.337H4.1c-.665 0-1.308-.56-1.2-1.337.212-1.54 1.112-3.422 2.648-4.91.52-.505 1.02-.987 1.676-1.271Z" clip-rule="evenodd"></path></svg>